<mxfile host="Electron" agent="Mozilla/5.0 (Windows NT 10.0; Win64; x64) AppleWebKit/537.36 (KHTML, like Gecko) draw.io/28.1.2 Chrome/138.0.7204.243 Electron/37.4.0 Safari/537.36" version="28.1.2">
  <diagram name="Pagina-1" id="MN7WsSKvXLgIGYer2BLl">
    <mxGraphModel dx="416" dy="595" grid="1" gridSize="10" guides="1" tooltips="1" connect="1" arrows="1" fold="1" page="1" pageScale="1" pageWidth="827" pageHeight="1169" math="1" shadow="0">
      <root>
        <mxCell id="0" />
        <mxCell id="1" parent="0" />
        <mxCell id="ddl-roebjKmBMkPWHnF6-1" value="" style="ellipse;whiteSpace=wrap;html=1;fillColor=none;fontColor=#ffffff;strokeColor=#006EAF;sketch=1;curveFitting=1;jiggle=2;" parent="1" vertex="1">
          <mxGeometry x="270" y="350" width="10" height="10" as="geometry" />
        </mxCell>
        <mxCell id="61cGgM1Lmk8JUmtUeZvV-2" value="" style="curved=1;endArrow=classic;html=1;rounded=0;entryX=-0.117;entryY=0.538;entryDx=0;entryDy=0;sketch=1;curveFitting=1;jiggle=2;entryPerimeter=0;" parent="1" target="ddl-roebjKmBMkPWHnF6-1" edge="1">
          <mxGeometry width="50" height="50" relative="1" as="geometry">
            <mxPoint x="220" y="355" as="sourcePoint" />
            <mxPoint x="260" y="349.67" as="targetPoint" />
            <Array as="points" />
          </mxGeometry>
        </mxCell>
        <mxCell id="61cGgM1Lmk8JUmtUeZvV-3" value="&lt;font&gt;START&lt;/font&gt;" style="text;html=1;align=center;verticalAlign=middle;whiteSpace=wrap;rounded=0;fontFamily=Comic Sans MS;" parent="1" vertex="1">
          <mxGeometry x="210" y="350" width="60" height="30" as="geometry" />
        </mxCell>
        <mxCell id="jqbja9KTDnkAdjI2LqNx-1" value="" style="ellipse;whiteSpace=wrap;html=1;fillColor=none;fontColor=#ffffff;strokeColor=#006EAF;sketch=1;curveFitting=1;jiggle=2;" parent="1" vertex="1">
          <mxGeometry x="310" y="410" width="10" height="10" as="geometry" />
        </mxCell>
        <mxCell id="jqbja9KTDnkAdjI2LqNx-2" value="" style="ellipse;whiteSpace=wrap;html=1;fillColor=none;fontColor=#ffffff;strokeColor=#006EAF;sketch=1;curveFitting=1;jiggle=2;" parent="1" vertex="1">
          <mxGeometry x="330" y="410" width="10" height="10" as="geometry" />
        </mxCell>
        <mxCell id="jqbja9KTDnkAdjI2LqNx-3" value="" style="ellipse;whiteSpace=wrap;html=1;fillColor=none;fontColor=#ffffff;strokeColor=#006EAF;sketch=1;curveFitting=1;jiggle=2;" parent="1" vertex="1">
          <mxGeometry x="320" y="390" width="10" height="10" as="geometry" />
        </mxCell>
        <mxCell id="jqbja9KTDnkAdjI2LqNx-5" value="" style="ellipse;whiteSpace=wrap;html=1;fillColor=#1ba1e2;fontColor=#ffffff;strokeColor=#006EAF;sketch=1;curveFitting=1;jiggle=2;" parent="1" vertex="1">
          <mxGeometry x="392.5" y="360" width="10" height="10" as="geometry" />
        </mxCell>
        <mxCell id="jqbja9KTDnkAdjI2LqNx-6" value="" style="ellipse;whiteSpace=wrap;html=1;fillColor=#1ba1e2;fontColor=#ffffff;strokeColor=#006EAF;sketch=1;curveFitting=1;jiggle=2;" parent="1" vertex="1">
          <mxGeometry x="392.5" y="340" width="10" height="10" as="geometry" />
        </mxCell>
        <mxCell id="jqbja9KTDnkAdjI2LqNx-7" value="" style="rounded=0;whiteSpace=wrap;html=1;fillColor=none;sketch=1;curveFitting=1;jiggle=2;" parent="1" vertex="1">
          <mxGeometry x="210" y="320" width="210" height="120" as="geometry" />
        </mxCell>
        <mxCell id="jqbja9KTDnkAdjI2LqNx-8" value="$$N_{1}$$" style="text;html=1;align=center;verticalAlign=middle;resizable=0;points=[];autosize=1;strokeColor=none;fillColor=none;" parent="1" vertex="1">
          <mxGeometry x="280" y="440" width="80" height="30" as="geometry" />
        </mxCell>
        <mxCell id="jqbja9KTDnkAdjI2LqNx-10" value="" style="ellipse;whiteSpace=wrap;html=1;fillColor=none;fontColor=#ffffff;strokeColor=#99004D;sketch=1;curveFitting=1;jiggle=2;" parent="1" vertex="1">
          <mxGeometry x="300" y="380" width="50" height="50" as="geometry" />
        </mxCell>
        <mxCell id="jqbja9KTDnkAdjI2LqNx-11" value="" style="curved=1;endArrow=classic;html=1;rounded=0;entryX=0;entryY=0.5;entryDx=0;entryDy=0;sketch=1;curveFitting=1;jiggle=2;exitX=0.5;exitY=1;exitDx=0;exitDy=0;flowAnimation=0;strokeColor=#FFD966;" parent="1" source="ddl-roebjKmBMkPWHnF6-1" target="jqbja9KTDnkAdjI2LqNx-10" edge="1">
          <mxGeometry width="50" height="50" relative="1" as="geometry">
            <mxPoint x="270" y="400" as="sourcePoint" />
            <mxPoint x="319" y="400" as="targetPoint" />
            <Array as="points">
              <mxPoint x="270" y="400" />
            </Array>
          </mxGeometry>
        </mxCell>
        <mxCell id="jqbja9KTDnkAdjI2LqNx-12" value="" style="curved=1;endArrow=classic;html=1;rounded=0;sketch=1;curveFitting=1;jiggle=2;exitX=1;exitY=0.5;exitDx=0;exitDy=0;entryX=0;entryY=0.5;entryDx=0;entryDy=0;strokeColor=light-dark(#FF6666,#FFD966);" parent="1" source="jqbja9KTDnkAdjI2LqNx-10" target="jqbja9KTDnkAdjI2LqNx-13" edge="1">
          <mxGeometry width="50" height="50" relative="1" as="geometry">
            <mxPoint x="375" y="380" as="sourcePoint" />
            <mxPoint x="350" y="350" as="targetPoint" />
            <Array as="points">
              <mxPoint x="370" y="410" />
              <mxPoint x="360" y="355" />
            </Array>
          </mxGeometry>
        </mxCell>
        <mxCell id="jqbja9KTDnkAdjI2LqNx-13" value="" style="ellipse;whiteSpace=wrap;html=1;fillColor=none;fontColor=#ffffff;strokeColor=#99004D;sketch=1;curveFitting=1;jiggle=2;" parent="1" vertex="1">
          <mxGeometry x="385" y="330" width="25" height="50" as="geometry" />
        </mxCell>
        <mxCell id="jqbja9KTDnkAdjI2LqNx-15" value="" style="curved=1;endArrow=classic;html=1;rounded=0;sketch=1;curveFitting=1;jiggle=2;exitX=0.5;exitY=0;exitDx=0;exitDy=0;entryX=0.5;entryY=0;entryDx=0;entryDy=0;strokeColor=#FFD966;" parent="1" source="jqbja9KTDnkAdjI2LqNx-13" target="jqbja9KTDnkAdjI2LqNx-10" edge="1">
          <mxGeometry width="50" height="50" relative="1" as="geometry">
            <mxPoint x="379" y="325" as="sourcePoint" />
            <mxPoint x="414" y="275" as="targetPoint" />
            <Array as="points">
              <mxPoint x="399" y="330" />
              <mxPoint x="320" y="330" />
            </Array>
          </mxGeometry>
        </mxCell>
        <mxCell id="jqbja9KTDnkAdjI2LqNx-16" value="" style="ellipse;whiteSpace=wrap;html=1;fillColor=none;fontColor=#ffffff;strokeColor=#006EAF;sketch=1;curveFitting=1;jiggle=2;" parent="1" vertex="1">
          <mxGeometry x="500" y="350" width="10" height="10" as="geometry" />
        </mxCell>
        <mxCell id="jqbja9KTDnkAdjI2LqNx-17" value="" style="curved=1;endArrow=classic;html=1;rounded=0;entryX=-0.117;entryY=0.538;entryDx=0;entryDy=0;sketch=1;curveFitting=1;jiggle=2;entryPerimeter=0;" parent="1" target="jqbja9KTDnkAdjI2LqNx-16" edge="1">
          <mxGeometry width="50" height="50" relative="1" as="geometry">
            <mxPoint x="450" y="355" as="sourcePoint" />
            <mxPoint x="490" y="349.6700000000001" as="targetPoint" />
            <Array as="points" />
          </mxGeometry>
        </mxCell>
        <mxCell id="jqbja9KTDnkAdjI2LqNx-18" value="&lt;font&gt;START&lt;/font&gt;" style="text;html=1;align=center;verticalAlign=middle;whiteSpace=wrap;rounded=0;fontFamily=Comic Sans MS;" parent="1" vertex="1">
          <mxGeometry x="440" y="350" width="60" height="30" as="geometry" />
        </mxCell>
        <mxCell id="jqbja9KTDnkAdjI2LqNx-19" value="" style="ellipse;whiteSpace=wrap;html=1;fillColor=none;fontColor=#ffffff;strokeColor=#006EAF;sketch=1;curveFitting=1;jiggle=2;" parent="1" vertex="1">
          <mxGeometry x="540" y="410" width="10" height="10" as="geometry" />
        </mxCell>
        <mxCell id="jqbja9KTDnkAdjI2LqNx-20" value="" style="ellipse;whiteSpace=wrap;html=1;fillColor=none;fontColor=#ffffff;strokeColor=#006EAF;sketch=1;curveFitting=1;jiggle=2;" parent="1" vertex="1">
          <mxGeometry x="560" y="410" width="10" height="10" as="geometry" />
        </mxCell>
        <mxCell id="jqbja9KTDnkAdjI2LqNx-21" value="" style="ellipse;whiteSpace=wrap;html=1;fillColor=none;fontColor=#ffffff;strokeColor=#006EAF;sketch=1;curveFitting=1;jiggle=2;" parent="1" vertex="1">
          <mxGeometry x="560" y="390" width="10" height="10" as="geometry" />
        </mxCell>
        <mxCell id="jqbja9KTDnkAdjI2LqNx-22" value="" style="ellipse;whiteSpace=wrap;html=1;fillColor=#1ba1e2;fontColor=#ffffff;strokeColor=#006EAF;sketch=1;curveFitting=1;jiggle=2;" parent="1" vertex="1">
          <mxGeometry x="622.5" y="360" width="10" height="10" as="geometry" />
        </mxCell>
        <mxCell id="jqbja9KTDnkAdjI2LqNx-23" value="" style="ellipse;whiteSpace=wrap;html=1;fillColor=#1ba1e2;fontColor=#ffffff;strokeColor=#006EAF;sketch=1;curveFitting=1;jiggle=2;" parent="1" vertex="1">
          <mxGeometry x="622.5" y="340" width="10" height="10" as="geometry" />
        </mxCell>
        <mxCell id="jqbja9KTDnkAdjI2LqNx-24" value="" style="rounded=0;whiteSpace=wrap;html=1;fillColor=none;strokeColor=default;sketch=1;curveFitting=1;jiggle=2;" parent="1" vertex="1">
          <mxGeometry x="440" y="320" width="210" height="120" as="geometry" />
        </mxCell>
        <mxCell id="jqbja9KTDnkAdjI2LqNx-25" value="$$N=N_{1}\circ N_{2}$$" style="text;html=1;align=center;verticalAlign=middle;resizable=0;points=[];autosize=1;strokeColor=none;fillColor=none;" parent="1" vertex="1">
          <mxGeometry x="344" y="610" width="150" height="30" as="geometry" />
        </mxCell>
        <mxCell id="jqbja9KTDnkAdjI2LqNx-26" value="" style="ellipse;whiteSpace=wrap;html=1;fillColor=none;fontColor=#ffffff;strokeColor=#99004D;sketch=1;curveFitting=1;jiggle=2;" parent="1" vertex="1">
          <mxGeometry x="525" y="380" width="60" height="50" as="geometry" />
        </mxCell>
        <mxCell id="jqbja9KTDnkAdjI2LqNx-27" value="" style="curved=1;endArrow=classic;html=1;rounded=0;entryX=0;entryY=0.5;entryDx=0;entryDy=0;sketch=1;curveFitting=1;jiggle=2;exitX=0.5;exitY=1;exitDx=0;exitDy=0;flowAnimation=0;strokeColor=#FFD966;" parent="1" source="jqbja9KTDnkAdjI2LqNx-16" target="jqbja9KTDnkAdjI2LqNx-26" edge="1">
          <mxGeometry width="50" height="50" relative="1" as="geometry">
            <mxPoint x="500" y="400" as="sourcePoint" />
            <mxPoint x="549" y="400" as="targetPoint" />
            <Array as="points">
              <mxPoint x="500" y="400" />
            </Array>
          </mxGeometry>
        </mxCell>
        <mxCell id="jqbja9KTDnkAdjI2LqNx-28" value="" style="curved=1;endArrow=none;html=1;rounded=0;sketch=1;curveFitting=1;jiggle=2;exitX=1;exitY=0.5;exitDx=0;exitDy=0;entryX=0.5;entryY=1;entryDx=0;entryDy=0;strokeColor=light-dark(#FF6666,#FFD966);endFill=0;startArrow=classic;startFill=1;" parent="1" source="jqbja9KTDnkAdjI2LqNx-26" target="jqbja9KTDnkAdjI2LqNx-29" edge="1">
          <mxGeometry width="50" height="50" relative="1" as="geometry">
            <mxPoint x="605" y="380" as="sourcePoint" />
            <mxPoint x="580" y="350" as="targetPoint" />
            <Array as="points">
              <mxPoint x="610" y="410" />
            </Array>
          </mxGeometry>
        </mxCell>
        <mxCell id="jqbja9KTDnkAdjI2LqNx-29" value="" style="ellipse;whiteSpace=wrap;html=1;fillColor=none;fontColor=#ffffff;strokeColor=#99004D;sketch=1;curveFitting=1;jiggle=2;" parent="1" vertex="1">
          <mxGeometry x="615" y="330" width="25" height="70" as="geometry" />
        </mxCell>
        <mxCell id="jqbja9KTDnkAdjI2LqNx-30" value="" style="curved=1;endArrow=none;html=1;rounded=0;sketch=1;curveFitting=1;jiggle=2;exitX=0;exitY=0;exitDx=0;exitDy=0;entryX=0.5;entryY=0;entryDx=0;entryDy=0;strokeColor=#FFD966;startArrow=classic;startFill=1;endFill=0;" parent="1" source="jqbja9KTDnkAdjI2LqNx-29" target="jqbja9KTDnkAdjI2LqNx-26" edge="1">
          <mxGeometry width="50" height="50" relative="1" as="geometry">
            <mxPoint x="609" y="325" as="sourcePoint" />
            <mxPoint x="644" y="275" as="targetPoint" />
            <Array as="points">
              <mxPoint x="560" y="340" />
            </Array>
          </mxGeometry>
        </mxCell>
        <mxCell id="jqbja9KTDnkAdjI2LqNx-31" value="" style="ellipse;whiteSpace=wrap;html=1;fillColor=none;fontColor=#ffffff;strokeColor=#006EAF;sketch=1;curveFitting=1;jiggle=2;" parent="1" vertex="1">
          <mxGeometry x="540" y="390" width="10" height="10" as="geometry" />
        </mxCell>
        <mxCell id="jqbja9KTDnkAdjI2LqNx-34" value="" style="ellipse;whiteSpace=wrap;html=1;fillColor=#1ba1e2;fontColor=#ffffff;strokeColor=#006EAF;sketch=1;curveFitting=1;jiggle=2;" parent="1" vertex="1">
          <mxGeometry x="622.5" y="380" width="10" height="10" as="geometry" />
        </mxCell>
        <mxCell id="jqbja9KTDnkAdjI2LqNx-36" value="$$N_{2}$$" style="text;html=1;align=center;verticalAlign=middle;resizable=0;points=[];autosize=1;strokeColor=none;fillColor=none;" parent="1" vertex="1">
          <mxGeometry x="505" y="440" width="80" height="30" as="geometry" />
        </mxCell>
        <mxCell id="jqbja9KTDnkAdjI2LqNx-37" value="" style="ellipse;whiteSpace=wrap;html=1;fillColor=none;fontColor=#ffffff;strokeColor=#006EAF;sketch=1;curveFitting=1;jiggle=2;" parent="1" vertex="1">
          <mxGeometry x="284" y="520" width="10" height="10" as="geometry" />
        </mxCell>
        <mxCell id="jqbja9KTDnkAdjI2LqNx-40" value="" style="ellipse;whiteSpace=wrap;html=1;fillColor=none;fontColor=#ffffff;strokeColor=#006EAF;sketch=1;curveFitting=1;jiggle=2;" parent="1" vertex="1">
          <mxGeometry x="324" y="580" width="10" height="10" as="geometry" />
        </mxCell>
        <mxCell id="jqbja9KTDnkAdjI2LqNx-41" value="" style="ellipse;whiteSpace=wrap;html=1;fillColor=none;fontColor=#ffffff;strokeColor=#006EAF;sketch=1;curveFitting=1;jiggle=2;" parent="1" vertex="1">
          <mxGeometry x="344" y="580" width="10" height="10" as="geometry" />
        </mxCell>
        <mxCell id="jqbja9KTDnkAdjI2LqNx-42" value="" style="ellipse;whiteSpace=wrap;html=1;fillColor=none;fontColor=#ffffff;strokeColor=#006EAF;sketch=1;curveFitting=1;jiggle=2;" parent="1" vertex="1">
          <mxGeometry x="334" y="560" width="10" height="10" as="geometry" />
        </mxCell>
        <mxCell id="jqbja9KTDnkAdjI2LqNx-43" value="" style="ellipse;whiteSpace=wrap;html=1;fillColor=none;fontColor=#ffffff;strokeColor=#006EAF;sketch=1;curveFitting=1;jiggle=2;" parent="1" vertex="1">
          <mxGeometry x="406.5" y="530" width="10" height="10" as="geometry" />
        </mxCell>
        <mxCell id="jqbja9KTDnkAdjI2LqNx-44" value="" style="ellipse;whiteSpace=wrap;html=1;fillColor=none;fontColor=#ffffff;strokeColor=#006EAF;sketch=1;curveFitting=1;jiggle=2;" parent="1" vertex="1">
          <mxGeometry x="406.5" y="510" width="10" height="10" as="geometry" />
        </mxCell>
        <mxCell id="jqbja9KTDnkAdjI2LqNx-46" value="" style="ellipse;whiteSpace=wrap;html=1;fillColor=none;fontColor=#ffffff;strokeColor=#99004D;sketch=1;curveFitting=1;jiggle=2;" parent="1" vertex="1">
          <mxGeometry x="314" y="550" width="50" height="50" as="geometry" />
        </mxCell>
        <mxCell id="jqbja9KTDnkAdjI2LqNx-47" value="" style="curved=1;endArrow=classic;html=1;rounded=0;entryX=0;entryY=0.5;entryDx=0;entryDy=0;sketch=1;curveFitting=1;jiggle=2;exitX=0.5;exitY=1;exitDx=0;exitDy=0;flowAnimation=0;strokeColor=#FFD966;" parent="1" source="jqbja9KTDnkAdjI2LqNx-37" target="jqbja9KTDnkAdjI2LqNx-46" edge="1">
          <mxGeometry width="50" height="50" relative="1" as="geometry">
            <mxPoint x="284" y="570" as="sourcePoint" />
            <mxPoint x="333" y="570" as="targetPoint" />
            <Array as="points">
              <mxPoint x="284" y="570" />
            </Array>
          </mxGeometry>
        </mxCell>
        <mxCell id="jqbja9KTDnkAdjI2LqNx-48" value="" style="curved=1;endArrow=classic;html=1;rounded=0;sketch=1;curveFitting=1;jiggle=2;exitX=1;exitY=0.5;exitDx=0;exitDy=0;entryX=0;entryY=0.5;entryDx=0;entryDy=0;strokeColor=light-dark(#FF6666,#FFD966);" parent="1" source="jqbja9KTDnkAdjI2LqNx-46" target="jqbja9KTDnkAdjI2LqNx-49" edge="1">
          <mxGeometry width="50" height="50" relative="1" as="geometry">
            <mxPoint x="389" y="550" as="sourcePoint" />
            <mxPoint x="364" y="520" as="targetPoint" />
            <Array as="points">
              <mxPoint x="384" y="580" />
              <mxPoint x="374" y="525" />
            </Array>
          </mxGeometry>
        </mxCell>
        <mxCell id="jqbja9KTDnkAdjI2LqNx-49" value="" style="ellipse;whiteSpace=wrap;html=1;fillColor=none;fontColor=#ffffff;strokeColor=#99004D;sketch=1;curveFitting=1;jiggle=2;" parent="1" vertex="1">
          <mxGeometry x="401" y="500" width="25" height="50" as="geometry" />
        </mxCell>
        <mxCell id="jqbja9KTDnkAdjI2LqNx-50" value="" style="curved=1;endArrow=classic;html=1;rounded=0;sketch=1;curveFitting=1;jiggle=2;exitX=0.5;exitY=0;exitDx=0;exitDy=0;entryX=0.5;entryY=0;entryDx=0;entryDy=0;strokeColor=#FFD966;" parent="1" source="jqbja9KTDnkAdjI2LqNx-49" target="jqbja9KTDnkAdjI2LqNx-46" edge="1">
          <mxGeometry width="50" height="50" relative="1" as="geometry">
            <mxPoint x="393" y="495" as="sourcePoint" />
            <mxPoint x="428" y="445" as="targetPoint" />
            <Array as="points">
              <mxPoint x="413" y="500" />
              <mxPoint x="334" y="500" />
            </Array>
          </mxGeometry>
        </mxCell>
        <mxCell id="jqbja9KTDnkAdjI2LqNx-51" value="" style="ellipse;whiteSpace=wrap;html=1;fillColor=none;fontColor=#ffffff;strokeColor=#006EAF;sketch=1;curveFitting=1;jiggle=2;" parent="1" vertex="1">
          <mxGeometry x="492.5" y="520" width="10" height="10" as="geometry" />
        </mxCell>
        <mxCell id="jqbja9KTDnkAdjI2LqNx-54" value="" style="ellipse;whiteSpace=wrap;html=1;fillColor=none;fontColor=#ffffff;strokeColor=#006EAF;sketch=1;curveFitting=1;jiggle=2;" parent="1" vertex="1">
          <mxGeometry x="532.5" y="580" width="10" height="10" as="geometry" />
        </mxCell>
        <mxCell id="jqbja9KTDnkAdjI2LqNx-55" value="" style="ellipse;whiteSpace=wrap;html=1;fillColor=none;fontColor=#ffffff;strokeColor=#006EAF;sketch=1;curveFitting=1;jiggle=2;" parent="1" vertex="1">
          <mxGeometry x="552.5" y="580" width="10" height="10" as="geometry" />
        </mxCell>
        <mxCell id="jqbja9KTDnkAdjI2LqNx-56" value="" style="ellipse;whiteSpace=wrap;html=1;fillColor=none;fontColor=#ffffff;strokeColor=#006EAF;sketch=1;curveFitting=1;jiggle=2;" parent="1" vertex="1">
          <mxGeometry x="552.5" y="560" width="10" height="10" as="geometry" />
        </mxCell>
        <mxCell id="jqbja9KTDnkAdjI2LqNx-57" value="" style="ellipse;whiteSpace=wrap;html=1;fillColor=#1ba1e2;fontColor=#ffffff;strokeColor=#006EAF;sketch=1;curveFitting=1;jiggle=2;" parent="1" vertex="1">
          <mxGeometry x="615" y="530" width="10" height="10" as="geometry" />
        </mxCell>
        <mxCell id="jqbja9KTDnkAdjI2LqNx-58" value="" style="ellipse;whiteSpace=wrap;html=1;fillColor=#1ba1e2;fontColor=#ffffff;strokeColor=#006EAF;sketch=1;curveFitting=1;jiggle=2;" parent="1" vertex="1">
          <mxGeometry x="615" y="510" width="10" height="10" as="geometry" />
        </mxCell>
        <mxCell id="jqbja9KTDnkAdjI2LqNx-60" value="" style="ellipse;whiteSpace=wrap;html=1;fillColor=none;fontColor=#ffffff;strokeColor=#99004D;sketch=1;curveFitting=1;jiggle=2;" parent="1" vertex="1">
          <mxGeometry x="517.5" y="550" width="60" height="50" as="geometry" />
        </mxCell>
        <mxCell id="jqbja9KTDnkAdjI2LqNx-61" value="" style="curved=1;endArrow=classic;html=1;rounded=0;entryX=0;entryY=0.5;entryDx=0;entryDy=0;sketch=1;curveFitting=1;jiggle=2;exitX=0.5;exitY=1;exitDx=0;exitDy=0;flowAnimation=0;strokeColor=#FFD966;" parent="1" source="jqbja9KTDnkAdjI2LqNx-51" target="jqbja9KTDnkAdjI2LqNx-60" edge="1">
          <mxGeometry width="50" height="50" relative="1" as="geometry">
            <mxPoint x="492.5" y="570" as="sourcePoint" />
            <mxPoint x="541.5" y="570" as="targetPoint" />
            <Array as="points">
              <mxPoint x="492.5" y="570" />
            </Array>
          </mxGeometry>
        </mxCell>
        <mxCell id="jqbja9KTDnkAdjI2LqNx-62" value="" style="curved=1;endArrow=none;html=1;rounded=0;sketch=1;curveFitting=1;jiggle=2;exitX=1;exitY=0.5;exitDx=0;exitDy=0;entryX=0.5;entryY=1;entryDx=0;entryDy=0;strokeColor=light-dark(#FF6666,#FFD966);endFill=0;startArrow=classic;startFill=1;" parent="1" source="jqbja9KTDnkAdjI2LqNx-60" target="jqbja9KTDnkAdjI2LqNx-63" edge="1">
          <mxGeometry width="50" height="50" relative="1" as="geometry">
            <mxPoint x="597.5" y="550" as="sourcePoint" />
            <mxPoint x="572.5" y="520" as="targetPoint" />
            <Array as="points">
              <mxPoint x="620" y="580" />
            </Array>
          </mxGeometry>
        </mxCell>
        <mxCell id="jqbja9KTDnkAdjI2LqNx-63" value="" style="ellipse;whiteSpace=wrap;html=1;fillColor=none;fontColor=#ffffff;strokeColor=#99004D;sketch=1;curveFitting=1;jiggle=2;" parent="1" vertex="1">
          <mxGeometry x="607.5" y="500" width="25" height="70" as="geometry" />
        </mxCell>
        <mxCell id="jqbja9KTDnkAdjI2LqNx-64" value="" style="curved=1;endArrow=none;html=1;rounded=0;sketch=1;curveFitting=1;jiggle=2;exitX=0;exitY=0;exitDx=0;exitDy=0;entryX=0.5;entryY=0;entryDx=0;entryDy=0;strokeColor=#FFD966;startArrow=classic;startFill=1;endFill=0;" parent="1" source="jqbja9KTDnkAdjI2LqNx-63" target="jqbja9KTDnkAdjI2LqNx-60" edge="1">
          <mxGeometry width="50" height="50" relative="1" as="geometry">
            <mxPoint x="601.5" y="495" as="sourcePoint" />
            <mxPoint x="636.5" y="445" as="targetPoint" />
            <Array as="points">
              <mxPoint x="552.5" y="510" />
            </Array>
          </mxGeometry>
        </mxCell>
        <mxCell id="jqbja9KTDnkAdjI2LqNx-65" value="" style="ellipse;whiteSpace=wrap;html=1;fillColor=none;fontColor=#ffffff;strokeColor=#006EAF;sketch=1;curveFitting=1;jiggle=2;" parent="1" vertex="1">
          <mxGeometry x="532.5" y="560" width="10" height="10" as="geometry" />
        </mxCell>
        <mxCell id="jqbja9KTDnkAdjI2LqNx-66" value="" style="ellipse;whiteSpace=wrap;html=1;fillColor=#1ba1e2;fontColor=#ffffff;strokeColor=#006EAF;sketch=1;curveFitting=1;jiggle=2;" parent="1" vertex="1">
          <mxGeometry x="615" y="550" width="10" height="10" as="geometry" />
        </mxCell>
        <mxCell id="jqbja9KTDnkAdjI2LqNx-52" value="" style="curved=1;endArrow=classic;html=1;rounded=0;entryX=0;entryY=0.5;entryDx=0;entryDy=0;sketch=1;curveFitting=1;jiggle=2;" parent="1" target="jqbja9KTDnkAdjI2LqNx-37" edge="1">
          <mxGeometry width="50" height="50" relative="1" as="geometry">
            <mxPoint x="224" y="525" as="sourcePoint" />
            <mxPoint x="273.99999999999204" y="524.77" as="targetPoint" />
            <Array as="points" />
          </mxGeometry>
        </mxCell>
        <mxCell id="jqbja9KTDnkAdjI2LqNx-53" value="&lt;font&gt;START&lt;/font&gt;" style="text;html=1;align=center;verticalAlign=middle;whiteSpace=wrap;rounded=0;fontFamily=Comic Sans MS;" parent="1" vertex="1">
          <mxGeometry x="220" y="530" width="60" height="30" as="geometry" />
        </mxCell>
        <mxCell id="jqbja9KTDnkAdjI2LqNx-75" value="" style="curved=1;endArrow=classic;html=1;rounded=0;sketch=1;curveFitting=1;jiggle=2;entryX=0;entryY=1;entryDx=0;entryDy=0;strokeColor=#97D077;exitX=1;exitY=1;exitDx=0;exitDy=0;" parent="1" source="jqbja9KTDnkAdjI2LqNx-43" target="jqbja9KTDnkAdjI2LqNx-51" edge="1">
          <mxGeometry width="50" height="50" relative="1" as="geometry">
            <mxPoint x="430" y="580" as="sourcePoint" />
            <mxPoint x="459" y="570" as="targetPoint" />
            <Array as="points">
              <mxPoint x="450" y="580" />
            </Array>
          </mxGeometry>
        </mxCell>
        <mxCell id="jqbja9KTDnkAdjI2LqNx-77" value="" style="curved=1;endArrow=classic;html=1;rounded=0;sketch=1;curveFitting=1;jiggle=2;entryX=0;entryY=0;entryDx=0;entryDy=0;strokeColor=#97D077;exitX=1;exitY=0;exitDx=0;exitDy=0;" parent="1" source="jqbja9KTDnkAdjI2LqNx-44" target="jqbja9KTDnkAdjI2LqNx-51" edge="1">
          <mxGeometry width="50" height="50" relative="1" as="geometry">
            <mxPoint x="416.5" y="505" as="sourcePoint" />
            <mxPoint x="495.5" y="495" as="targetPoint" />
            <Array as="points">
              <mxPoint x="450" y="470" />
            </Array>
          </mxGeometry>
        </mxCell>
        <mxCell id="jqbja9KTDnkAdjI2LqNx-78" value="&lt;font style=&quot;color: rgb(151, 208, 119);&quot;&gt;$$\mathcal{E}$$&lt;/font&gt;" style="text;html=1;align=center;verticalAlign=middle;resizable=0;points=[];autosize=1;strokeColor=none;fillColor=none;" parent="1" vertex="1">
          <mxGeometry x="370" y="550" width="110" height="30" as="geometry" />
        </mxCell>
        <mxCell id="jqbja9KTDnkAdjI2LqNx-79" value="&lt;font style=&quot;color: rgb(151, 208, 119);&quot;&gt;$$\mathcal{E}$$&lt;/font&gt;" style="text;html=1;align=center;verticalAlign=middle;resizable=0;points=[];autosize=1;strokeColor=none;fillColor=none;" parent="1" vertex="1">
          <mxGeometry x="370" y="470" width="110" height="30" as="geometry" />
        </mxCell>
        <mxCell id="yAmtc17Qb4JFdFKK4pbI-1" value="$$q_{0}^{1}$$" style="text;html=1;align=center;verticalAlign=middle;resizable=0;points=[];autosize=1;strokeColor=none;fillColor=none;" vertex="1" parent="1">
          <mxGeometry x="254" y="500" width="100" height="30" as="geometry" />
        </mxCell>
        <mxCell id="yAmtc17Qb4JFdFKK4pbI-2" value="$$q_{0}^{2}$$" style="text;html=1;align=center;verticalAlign=middle;resizable=0;points=[];autosize=1;strokeColor=none;fillColor=none;" vertex="1" parent="1">
          <mxGeometry x="462.5" y="500" width="100" height="30" as="geometry" />
        </mxCell>
        <mxCell id="jqbja9KTDnkAdjI2LqNx-80" value="" style="rounded=0;whiteSpace=wrap;html=1;fillColor=none;sketch=1;curveFitting=1;jiggle=2;" parent="1" vertex="1">
          <mxGeometry x="210" y="470" width="440" height="140" as="geometry" />
        </mxCell>
      </root>
    </mxGraphModel>
  </diagram>
</mxfile>
